{"title":"The Snow Queen 2005 DVDrip English Klam","uid":5801819,"size":842986140,"categoryP":"video","categoryS":"movies","magnet":"?xt=urn:btih:2c20e66fbfdbd4581c1f3985cc5d988d67ec5657&amp;dn=The+Snow+Queen+2005+DVDrip+English+Klam&amp;tr=udp%3A%2F%2Ftracker.openbittorrent.com%3A80&amp;tr=udp%3A%2F%2Fopen.demonii.com%3A1337&amp;tr=udp%3A%2F%2Ftracker.coppersurfer.tk%3A6969&amp;tr=udp%3A%2F%2Fexodus.desync.com%3A6969","seeders":1,"leechers":0,"uploader":"Klambake","files":-1,"time":1283288343,"description":"With: Sydney White, Pax Baldwin en de stem van Patrick Stewart\n\nGerda sets out on a magical journey to find her best friend, Kay who has been taken by the Snow Queen.\n\nGeneral:\n\nComplete name                    : The Snow Queen\\The Snow Queen.avi\nFormat                           : AVI\nFormat/Info                      : Audio Video Interleave\nFile size                        : 803 MiB\nDuration                         : 56mn 3s\nOverall bit rate                 : 2 003 Kbps\n\nVideo:\n\nFormat                           : MPEG-4 Visual\nFormat profile                   : Simple@L3\nFormat settings, BVOP            : No\nFormat settings, QPel            : No\nFormat settings, GMC             : No warppoints\nFormat settings, Matrix          : Default (H.263)\nCodec ID                         : XVID\nCodec ID/Hint                    : XviD\nDuration                         : 56mn 3s\nBit rate                         : 1 608 Kbps\nWidth                            : 720 pixels\nHeight                           : 400 pixels\nDisplay aspect ratio             : 16:9\nFrame rate                       : 25.000 fps\nColor space                      : YUV\nChroma subsampling               : 4:2:0\nBit depth                        : 8 bits\nScan type                        : Progressive\nBits/(Pixel*Frame)               : 0.223\nStream size                      : 645 MiB (80%)\nWriting library                  : XviD 1.1.2 (UTC 2006-11-01)\n\nAudio:\n\nFormat                           : AC-3\nFormat/Info                      : Audio Coding 3\nMode extension                   : CM (complete main)\nCodec ID                         : 2000\nDuration                         : 56mn 3s\nBit rate mode                    : Constant\nBit rate                         : 384 Kbps\nChannel(s)                       : 6 channels\nChannel positions                : Front: L C R, Side: L R, LFE\nSampling rate                    : 48.0 KHz\nStream size                      : 154 MiB (19%)\nAlignment                        : Aligned on interleaves\nInterleave, duration             : 32 ms (0.80 video frame)\nInterleave, preload duration     : 288 ms","torrent":{"xt":"urn:btih:2c20e66fbfdbd4581c1f3985cc5d988d67ec5657","amp;dn":"The+Snow+Queen+2005+DVDrip+English+Klam","amp;tr":["udp%3A%2F%2Ftracker.openbittorrent.com%3A80","udp%3A%2F%2Fopen.demonii.com%3A1337","udp%3A%2F%2Ftracker.coppersurfer.tk%3A6969","udp%3A%2F%2Fexodus.desync.com%3A6969"],"infoHash":"2c20e66fbfdbd4581c1f3985cc5d988d67ec5657","infoHashBuffer":{"type":"Buffer","data":[44,32,230,111,191,219,212,88,28,31,57,133,204,93,152,141,103,236,86,87]},"announce":[],"urlList":[]}}